<svg width="64" height="64" viewBox="0 0 64 64" fill="none" xmlns="http://www.w3.org/2000/svg">
<g id="Loading-spin">
<path id="Union" fill-rule="evenodd" clip-rule="evenodd" d="M31.9999 45.8721C31.2874 46.375 30.5337 46.8419 29.7367 47.2638C20.595 52.1031 8.71322 49.4607 5.43909 48.5862C4.93976 48.4528 4.65495 47.9581 4.78957 47.4591C5.63266 44.3339 9.09376 33.6981 18.1694 28.8937C18.9597 28.4754 19.7705 28.1129 20.5944 27.8004C20.4769 26.9873 20.4134 26.1595 20.4134 25.32C20.4134 15.557 28.9978 7.38642 31.3762 5.31002C31.7289 5.00216 32.2325 5.00216 32.5851 5.31002C34.9636 7.38642 43.548 15.557 43.548 25.32C43.548 26.1548 43.4852 26.978 43.3689 27.7867C44.2053 28.1023 45.0284 28.4692 45.8303 28.8937C54.906 33.6981 58.3671 44.3339 59.2102 47.4591C59.3448 47.9581 59.06 48.4528 58.5606 48.5862C55.2865 49.4607 43.4047 52.1031 34.263 47.2638C33.466 46.8419 32.7123 46.375 31.9999 45.8721ZM34.4899 37.6863C34.963 37.0788 35.426 36.4423 35.8678 35.7808C36.2365 35.1501 36.5761 34.5163 36.8879 33.8881C37.3957 32.8652 37.8146 31.8877 38.1552 31.0074C38.2677 30.7165 38.0857 30.3973 37.7782 30.3449C36.7654 30.1722 35.617 30.013 34.3787 29.9031C33.6035 29.8343 32.8078 29.7861 31.9999 29.7645C31.1919 29.7861 30.3962 29.8343 29.6211 29.9031C28.3827 30.013 27.2343 30.1722 26.2215 30.3449C25.914 30.3973 25.732 30.7165 25.8446 31.0074C26.1851 31.8877 26.6041 32.8652 27.1118 33.8881C27.4986 34.6673 27.9281 35.4552 28.403 36.2352C28.7498 36.7349 29.1077 37.2192 29.4714 37.6863C30.2059 38.6295 30.942 39.4735 31.6204 40.1991C31.8156 40.4079 32.1457 40.4079 32.3409 40.1991C33.0193 39.4735 33.7554 38.6295 34.4899 37.6863ZM42.4706 31.4507C41.6973 33.6965 40.5796 35.7764 39.3592 37.6168C38.2182 39.5541 36.7863 41.5389 35.0078 43.3237C35.4164 43.589 35.8386 43.8381 36.2747 44.069C40.5789 46.3475 45.8856 46.6614 50.4723 46.2544C51.4979 46.1634 53.0095 45.9374 53.846 45.8065C54.1622 45.757 54.349 45.4286 54.229 45.1319C53.9311 44.395 53.4006 43.1137 52.9815 42.2694C51.0726 38.4238 48.1228 34.367 43.8186 32.0885C43.3791 31.8559 42.9292 31.6437 42.4706 31.4507ZM28.9919 43.3237C28.5833 43.589 28.1611 43.8381 27.725 44.069C23.4208 46.3475 18.1142 46.6614 13.5275 46.2544C12.2891 46.1445 11.1407 45.9853 10.1279 45.8126C9.82044 45.7602 9.63844 45.441 9.75097 45.1501C10.0915 44.2698 10.5105 43.2923 11.0182 42.2694C12.9271 38.4238 15.8769 34.367 20.1811 32.0885C20.6099 31.8615 21.0486 31.6541 21.4956 31.4648C22.3412 33.9151 23.5963 36.1676 24.9471 38.1267C26.035 39.9002 27.3692 41.6952 28.9919 43.3237ZM39.4565 26.6748C39.5012 26.2256 39.5246 25.7737 39.5246 25.32C39.5246 20.763 37.1677 16.3923 34.4899 12.9537C33.7554 12.0105 33.0193 11.1665 32.3409 10.4409C32.1457 10.2321 31.8156 10.2321 31.6204 10.4409C30.942 11.1665 30.2059 12.0105 29.4714 12.9537C26.7936 16.3923 24.4368 20.763 24.4368 25.32C24.4368 25.7763 24.4604 26.2306 24.5056 26.6824C27.0545 26.1659 29.6191 26.0174 31.9998 26.0742C34.3689 26.0177 36.92 26.1645 39.4565 26.6748Z" fill="url(#paint0_linear_707_19061)"/>
<circle id="Ellipse 13" cx="13.9431" cy="24.0002" r="2.74286" fill="url(#paint1_linear_707_19061)"/>
<circle id="Ellipse 14" cx="2.74286" cy="2.74286" r="2.74286" transform="matrix(1 0 0 -1 47.0859 26.7427)" fill="url(#paint2_linear_707_19061)"/>
<circle id="Ellipse 15" cx="2.74286" cy="2.74286" r="2.74286" transform="matrix(1 0 0 -1 29.4858 55.543)" fill="url(#paint3_linear_707_19061)"/>
</g>
<defs>
<linearGradient id="paint0_linear_707_19061" x1="4.57129" y1="4.7998" x2="60.308" y2="5.90933" gradientUnits="userSpaceOnUse">
<stop stop-color="#683AE9"/>
<stop offset="1" stop-color="#873AE9"/>
</linearGradient>
<linearGradient id="paint1_linear_707_19061" x1="11.2002" y1="21.2573" x2="16.7746" y2="21.3489" gradientUnits="userSpaceOnUse">
<stop stop-color="#683AE9"/>
<stop offset="1" stop-color="#873AE9"/>
</linearGradient>
<linearGradient id="paint2_linear_707_19061" x1="0" y1="0" x2="5.57438" y2="0.0916235" gradientUnits="userSpaceOnUse">
<stop stop-color="#683AE9"/>
<stop offset="1" stop-color="#873AE9"/>
</linearGradient>
<linearGradient id="paint3_linear_707_19061" x1="0" y1="0" x2="5.57438" y2="0.0916235" gradientUnits="userSpaceOnUse">
<stop stop-color="#683AE9"/>
<stop offset="1" stop-color="#873AE9"/>
</linearGradient>
</defs>
</svg>
